<svg width="465" height="326" viewBox="0 0 465 326" fill="none" xmlns="http://www.w3.org/2000/svg">
<path opacity="0.4" d="M0.667782 142.468L8.86197 137.651C34.3654 166.997 52.4971 186.458 69.8095 199.345L70.7945 200.078L70.6019 198.865C68.7892 187.456 67.8605 175.488 67.8605 163.088C67.8605 79.5351 110.056 16.327 178.987 4.26371C164.385 15.162 151.838 35.8257 142.839 62.699C133.474 90.6644 127.928 125.424 127.928 163.088C127.928 200.752 133.474 235.512 142.839 263.477C151.838 290.353 164.387 311.018 178.991 321.916C166.889 319.835 155.598 316.571 145.223 311.478L145.209 311.471L145.195 311.465C83.3118 285.62 45.1639 225.459 0.667782 142.468Z" stroke="url(#paint0_linear_957_27213)"/>
<path opacity="0.4" d="M452.932 188.497C427.441 159.167 409.316 139.714 392.009 126.832L391.024 126.099L391.216 127.311C393.029 138.72 393.958 150.688 393.958 163.088C393.958 246.641 351.762 309.849 282.831 321.913C297.433 311.014 309.981 290.351 318.98 263.477C328.344 235.512 333.89 200.752 333.89 163.088C333.89 125.424 328.344 90.6644 318.98 62.699C309.98 35.8232 297.431 15.1582 282.827 4.26068C294.93 6.34114 306.22 9.60546 316.596 14.6988L316.609 14.7055L316.623 14.7114C378.507 40.5565 416.699 100.674 461.151 183.666L452.932 188.497Z" stroke="url(#paint1_linear_957_27213)"/>
<defs>
<linearGradient id="paint0_linear_957_27213" x1="90.5156" y1="3.41602" x2="90.5156" y2="322.76" gradientUnits="userSpaceOnUse">
<stop stop-color="white" stop-opacity="0.453125"/>
<stop offset="1" stop-color="white" stop-opacity="0.1"/>
</linearGradient>
<linearGradient id="paint1_linear_957_27213" x1="371.303" y1="3.41602" x2="371.303" y2="322.76" gradientUnits="userSpaceOnUse">
<stop stop-color="white" stop-opacity="0.453125"/>
<stop offset="1" stop-color="white" stop-opacity="0.1"/>
</linearGradient>
</defs>
</svg>
