<svg width="373" height="74" viewBox="0 0 373 74" fill="none" xmlns="http://www.w3.org/2000/svg">
<path d="M20.9447 35.1914L16.0929 34.1098C9.96796 32.6918 5.96276 31.3519 5.96276 27.2722C5.96276 22.5915 10.5624 20.0139 16.273 20.0139C23.4187 20.0139 27.586 24.1898 28.1865 29.267H33.0384C32.4319 21.6001 25.1121 16.0963 16.267 16.0963C7.42193 16.0963 1.18895 21.3598 1.18895 27.6086C1.18895 33.8575 6.29903 36.8678 14.1353 38.6102L18.9031 39.6917C26.2169 41.3621 29.4535 43.1106 29.4535 47.5268C29.4535 52.3637 24.8539 55.5302 17.9603 55.5302C9.45155 55.5302 5.27822 49.9363 4.84587 44.0239H0C0.42634 52.1894 6.81544 59.4477 17.8823 59.4477C28.0904 59.4477 34.2273 54.8632 34.2273 47.3586C34.2273 40.3587 30.1381 37.3544 20.9507 35.1854L20.9447 35.1914Z" fill="#1D2B4D"/>
<path d="M51.1486 16.9438H46.3808V58.6248H51.1486V16.9438Z" fill="#1D2B4D"/>
<path d="M110.53 16.109C103.889 16.109 99.4636 19.7742 97.0797 25.7767H96.9956C95.3022 20.0205 90.5224 16.109 83.5509 16.109C77.414 16.109 73.1566 19.1914 70.6886 25.3561H70.5205V16.9382H65.9208V58.6192H70.6886H70.6826L70.7006 58.6252V32.2839C70.7006 25.1097 74.4356 20.1107 81.7614 20.1107C89.0873 20.1107 92.9183 24.2746 92.9183 33.1972V58.6252H97.6861V32.2839C97.6861 25.1097 101.595 20.1107 108.831 20.1107C116.067 20.1107 119.892 24.2746 119.892 33.1972V58.6132H124.66V31.1904C124.66 22.3518 119.466 16.103 110.524 16.103L110.53 16.109Z" fill="#1D2B4D"/>
<path d="M159.835 16.103C152.257 16.103 146.721 20.5313 144.259 27.0325H144.091V16.9442H139.323V72.7933H144.091V48.5369H144.259C146.727 55.0381 152.257 59.4544 159.835 59.4544C171.923 59.4544 178.732 49.4562 178.732 37.7817C178.732 26.1072 171.923 16.103 159.835 16.103ZM158.73 55.5368C149.633 55.5368 143.923 48.0382 143.923 37.7817C143.923 27.5252 149.621 20.0265 158.73 20.0265C167.84 20.0265 173.628 27.5252 173.628 37.7817C173.628 48.0382 167.834 55.5368 158.73 55.5368Z" fill="#1D2B4D"/>
<path d="M196.219 1.10555H191.451V58.625H196.219V1.10555Z" fill="#1D2B4D"/>
<path d="M242.162 16.9318L242.15 16.9438L227.426 54.5391L210.913 16.9438H205.977L222.664 54.9477H227.27L220.28 72.7869H225.216L247.091 16.9318H242.162Z" fill="#1D2B4D"/>
<path d="M262.193 16.9252V16.9432L262.157 51.8767C262.157 62.6439 261.215 64.4945 251.066 72.9064L251.745 74C266.181 66.5915 275.29 60.619 275.29 46.9857L275.332 16.9252H262.187H262.193Z" fill="#1D2B4D"/>
<path d="M328.222 42.9785C325.31 51.6487 320.098 53.5174 314.939 53.5174C304.713 53.5174 299.981 43.0746 300.42 33.7374H329.033C328.084 22.2972 320.524 15.8981 309.871 15.8981C296.541 15.8981 286.663 24.4062 286.663 38.6283C286.663 51.3363 296.289 60.1748 309.613 60.1748C318.554 60.1748 327.652 53.7036 329.729 43.3029L328.228 42.9785H328.222ZM308.917 18.7702C314.165 18.7702 315.882 24.4001 315.45 30.2945H300.582C300.84 23.9856 303.668 18.7702 308.917 18.7702Z" fill="#1D2B4D"/>
<path d="M371.619 49.2277C369.115 53.7221 365.704 54.6955 362.696 54.6955C358.324 54.6955 356.769 52.5865 356.769 47.2028V22.2976H372.063V18.8607H356.769V0L335.278 22.3036H343.558V45.184C343.558 53.4337 348.765 60.1692 358.042 60.1692C365.176 60.1692 370.874 56.1736 373 49.9908L371.625 49.2337L371.619 49.2277Z" fill="#1D2B4D"/>
</svg>
