<svg width="530" height="524" viewBox="0 0 530 524" fill="none" xmlns="http://www.w3.org/2000/svg">
<path d="M235.9 191.402C235.9 191.402 41.6416 305.064 34.0302 310.144C26.4187 315.224 -3.28336 352.589 1.87534 357.748C7.03404 362.908 30.5805 339.026 44.3159 335.592C58.0514 332.158 205.343 290.647 212.828 288.779C220.313 286.912 237.356 287.845 237.356 287.845" stroke="#1D2B4D" stroke-opacity="0.1" stroke-miterlimit="10"/>
<path d="M37.8271 338.202V329.751L208.238 268.314V290.012" stroke="#1D2B4D" stroke-opacity="0.1" stroke-miterlimit="10"/>
<path d="M294.086 191.402C294.086 191.402 488.345 305.048 495.972 310.128C503.583 315.208 533.27 352.589 528.127 357.732C522.984 362.876 499.422 339.01 485.686 335.576C471.951 332.142 324.659 290.631 317.174 288.763C309.689 286.896 292.646 287.83 292.646 287.83" stroke="#1D2B4D" stroke-opacity="0.1" stroke-miterlimit="10"/>
<path d="M492.173 338.202V329.751L321.762 268.314V290.012" stroke="#1D2B4D" stroke-opacity="0.1" stroke-miterlimit="10"/>
<path d="M238.529 315.998H233.196" stroke="#1D2B4D" stroke-opacity="0.1" stroke-miterlimit="10"/>
<path d="M246.991 404.338L232.496 394.828" stroke="#1D2B4D" stroke-opacity="0.1" stroke-miterlimit="10"/>
<path d="M291.462 315.998H296.779" stroke="#1D2B4D" stroke-opacity="0.1" stroke-miterlimit="10"/>
<path d="M282.977 404.338L297.472 394.828" stroke="#1D2B4D" stroke-opacity="0.1" stroke-miterlimit="10"/>
<path d="M232.879 310.871C233.86 318.768 234.461 391.124 231.692 399.923H215.915C215.915 399.923 208.225 373.811 205.456 353.095C202.686 332.378 206.642 310.887 206.642 310.887H232.879V310.871Z" stroke="#1D2B4D" stroke-opacity="0.1" stroke-miterlimit="10"/>
<path d="M297.14 310.871C296.159 318.768 295.558 391.124 298.327 399.923H314.104C314.104 399.923 321.794 373.811 324.563 353.095C327.333 332.378 323.377 310.887 323.377 310.887H297.14V310.871Z" stroke="#1D2B4D" stroke-opacity="0.1" stroke-miterlimit="10"/>
<path d="M264.984 520.184C267.183 520.184 271.519 431.797 271.519 405.953C271.519 380.11 268.291 366.404 264.984 366.404C261.676 366.404 258.448 380.125 258.448 405.953C258.448 431.781 262.8 520.184 264.984 520.184Z" stroke="#1D2B4D" stroke-opacity="0.1" stroke-miterlimit="10"/>
<path d="M272.659 443.286C281.615 425.735 288.372 377.751 291.474 315.999C295.414 237.676 293.721 142.436 293.721 92.8535C293.721 43.271 270.633 1 265 1C259.366 1 236.263 43.2551 236.263 92.8535C236.263 142.436 234.57 237.676 238.51 315.999C241.627 377.751 248.369 425.751 257.325 443.286" stroke="#1D2B4D" stroke-opacity="0.1" stroke-miterlimit="10"/>
<path d="M262.279 495.796L176.021 522.732V503.377C176.021 499.943 239.951 455.345 259.431 441.846" stroke="#1D2B4D" stroke-opacity="0.1" stroke-miterlimit="10"/>
<path d="M267.69 495.781L353.98 522.732V503.377C353.98 499.943 289.987 455.298 270.539 441.814" stroke="#1D2B4D" stroke-opacity="0.1" stroke-miterlimit="10"/>
<path d="M236.69 81.1106C250.837 81.1106 246.596 56.8653 265 56.8653V38.3965C265 38.3965 239.713 38.8238 236.69 81.1106Z" stroke="#1D2B4D" stroke-opacity="0.1" stroke-miterlimit="10"/>
<path d="M293.312 81.1106C279.165 81.1106 283.406 56.8653 265.002 56.8653V38.3965C265.002 38.3965 290.289 38.8238 293.312 81.1106Z" stroke="#1D2B4D" stroke-opacity="0.1" stroke-miterlimit="10"/>
</svg>
